<svg width="78" height="57" viewBox="0 0 78 57" fill="none" xmlns="http://www.w3.org/2000/svg">
<g filter="url(#filter0_d_101_154)">
<path d="M56.9727 30.1169C55.8876 27.1519 53.5418 24.5372 50.2952 22.6738C47.0487 20.8104 43.0807 19.8013 39 19.8013C34.9193 19.8013 30.9513 20.8104 27.7047 22.6738C24.4582 24.5372 22.1124 27.1519 21.0272 30.1169L18.4412 37.1826C17.9769 38.4512 17.9076 39.7836 18.2388 41.0757C18.57 42.3678 19.2926 43.5848 20.3504 44.6318C21.4082 45.6788 22.7725 46.5275 24.3371 47.1118C25.9016 47.696 27.624 48 29.37 48H48.6299C50.3759 48 52.0984 47.696 53.6629 47.1118C55.2274 46.5275 56.5917 45.6788 57.6495 44.6318C58.7073 43.5848 59.43 42.3678 59.7611 41.0757C60.0923 39.7836 60.023 38.4512 59.5587 37.1826L56.9727 30.1169ZM54.0418 42.5606C53.4099 43.1912 52.5919 43.7021 51.6525 44.0529C50.7132 44.4038 49.6783 44.5849 48.6299 44.582H29.37C28.3224 44.582 27.2889 44.3996 26.3502 44.0491C25.4114 43.6985 24.5928 43.1893 23.9581 42.5611C23.3235 41.9329 22.8899 41.2027 22.6912 40.4274C22.4925 39.6521 22.534 38.8527 22.8126 38.0915L25.3986 31.0259C26.2199 28.7821 27.9951 26.8033 30.452 25.3931C32.9089 23.983 35.9118 23.2193 39 23.2193C42.0881 23.2193 45.091 23.983 47.5479 25.3931C50.0048 26.8033 51.7801 28.7821 52.6013 31.0259L55.1873 38.0915C55.4699 38.8524 55.5135 39.6524 55.3147 40.4282C55.1159 41.204 54.6801 41.9338 54.0418 42.5606ZM23.4257 22.1843C23.8202 20.3258 23.297 18.3362 21.9519 16.5806C20.6067 14.825 18.5819 13.4887 16.2498 12.8169C13.7522 12.098 11.2048 12.2125 9.07427 13.1392C4.83889 14.9824 3.72432 19.525 6.59018 23.2656C7.9349 25.0212 9.95984 26.3578 12.292 27.0293C13.3251 27.3327 14.4232 27.491 15.532 27.4962C16.9133 27.4999 18.2713 27.2276 19.4675 26.7069C21.5967 25.7801 23.0025 24.1739 23.4257 22.1843ZM18.9476 21.6441C18.7449 22.5978 18.1242 23.3445 17.1998 23.7468C16.2754 24.1491 15.1071 24.1807 13.9097 23.8362C12.5474 23.4441 11.3425 22.6344 10.5169 21.5566C8.92972 19.4844 9.30696 16.985 11.3417 16.0993C11.8532 15.8805 12.4325 15.7678 13.0206 15.7727C13.5722 15.777 14.1182 15.8572 14.6315 16.0095C15.9938 16.4018 17.1987 17.2113 18.0243 18.2892C18.8499 19.367 19.1777 20.5588 18.9476 21.6441ZM23.9169 15.1034C25.527 16.0736 27.3657 16.5788 29.2252 16.5787C29.7821 16.5785 30.3375 16.5334 30.8816 16.444C35.6606 15.6609 38.5582 11.5901 37.3409 7.36936C36.7698 5.3884 35.3813 3.65045 33.4313 2.47539C31.3432 1.21714 28.8697 0.740857 26.4666 1.13478C21.6877 1.91772 18.7901 5.98859 20.0073 10.2093C20.5785 12.1904 21.967 13.9283 23.9169 15.1034ZM27.4297 4.47483C27.65 4.43902 27.8748 4.42111 28.1002 4.42142C28.9432 4.42142 29.8102 4.66998 30.5996 5.14572C31.7386 5.832 32.559 6.87973 32.9096 8.09601C33.5841 10.4347 32.2143 12.7283 29.9184 13.1045C28.8753 13.2754 27.7495 13.0374 26.7487 12.4342C25.6098 11.7478 24.7894 10.7001 24.4388 9.48394C23.7641 7.14462 25.1339 4.85103 27.4297 4.47483ZM68.9257 13.1392C66.796 12.2125 64.2473 12.098 61.7502 12.8169C59.418 13.4885 57.393 14.825 56.0483 16.5806C54.7036 18.3362 54.1803 20.3262 54.5745 22.1843C54.9971 24.1739 56.4026 25.7801 58.5327 26.7069C59.7289 27.2276 61.0869 27.5 62.4682 27.4962C63.577 27.491 64.6751 27.3327 65.7082 27.0293C68.0404 26.3578 70.0653 25.0212 71.41 23.2656C74.2756 19.525 73.161 14.9824 68.9257 13.1392ZM67.483 21.5566C66.6574 22.6344 65.4526 23.4441 64.0903 23.8362C62.8934 24.181 61.7248 24.1493 60.8004 23.7468C59.876 23.3443 59.2557 22.5978 59.0527 21.6441C58.8222 20.5588 59.1499 19.3675 59.9756 18.2901C60.8014 17.2128 62.0061 16.4028 63.3684 16.0104C63.8817 15.858 64.4277 15.7776 64.9794 15.7732C65.5675 15.7683 66.1467 15.8811 66.6582 16.0998C68.693 16.9848 69.0706 19.4839 67.483 21.5566ZM47.1183 16.444C47.6625 16.5334 48.2178 16.5785 48.7748 16.5787C50.634 16.5787 52.4735 16.0736 54.0831 15.1034C56.0329 13.9284 57.4214 12.1904 57.9926 10.2094C59.2098 5.98869 56.3122 1.91783 51.5334 1.13489C49.1303 0.741177 46.6567 1.21714 44.5686 2.4755C42.6186 3.65045 41.2301 5.38851 40.659 7.36936C39.4417 11.5901 42.3393 15.6609 47.1183 16.444ZM45.0904 8.09547C45.441 6.87919 46.2613 5.83104 47.4003 5.14519C48.1899 4.66944 49.0568 4.42089 49.8997 4.42089C50.1251 4.42058 50.3499 4.43848 50.5703 4.4743C52.866 4.85049 54.2358 7.14462 53.5614 9.48276C53.2105 10.699 52.3902 11.7472 51.2515 12.4332C50.2509 13.0362 49.1258 13.2742 48.0818 13.1034C45.7856 12.7277 44.4158 10.4338 45.0904 8.09547Z" fill="#393939"/>
<path d="M56.9727 30.1169C55.8876 27.1519 53.5418 24.5372 50.2952 22.6738C47.0487 20.8104 43.0807 19.8013 39 19.8013C34.9193 19.8013 30.9513 20.8104 27.7047 22.6738C24.4582 24.5372 22.1124 27.1519 21.0272 30.1169L18.4412 37.1826C17.9769 38.4512 17.9076 39.7836 18.2388 41.0757C18.57 42.3678 19.2926 43.5848 20.3504 44.6318C21.4082 45.6788 22.7725 46.5275 24.3371 47.1118C25.9016 47.696 27.624 48 29.37 48H48.6299C50.3759 48 52.0984 47.696 53.6629 47.1118C55.2274 46.5275 56.5917 45.6788 57.6495 44.6318C58.7073 43.5848 59.43 42.3678 59.7611 41.0757C60.0923 39.7836 60.023 38.4512 59.5587 37.1826L56.9727 30.1169ZM54.0418 42.5606C53.4099 43.1912 52.5919 43.7021 51.6525 44.0529C50.7132 44.4038 49.6783 44.5849 48.6299 44.582H29.37C28.3224 44.582 27.2889 44.3996 26.3502 44.0491C25.4114 43.6985 24.5928 43.1893 23.9581 42.5611C23.3235 41.9329 22.8899 41.2027 22.6912 40.4274C22.4925 39.6521 22.534 38.8527 22.8126 38.0915L25.3986 31.0259C26.2199 28.7821 27.9951 26.8033 30.452 25.3931C32.9089 23.983 35.9118 23.2193 39 23.2193C42.0881 23.2193 45.091 23.983 47.5479 25.3931C50.0048 26.8033 51.7801 28.7821 52.6013 31.0259L55.1873 38.0915C55.4699 38.8524 55.5135 39.6524 55.3147 40.4282C55.1159 41.204 54.6801 41.9338 54.0418 42.5606ZM23.4257 22.1843C23.8202 20.3258 23.297 18.3362 21.9519 16.5806C20.6067 14.825 18.5819 13.4887 16.2498 12.8169C13.7522 12.098 11.2048 12.2125 9.07427 13.1392C4.83889 14.9824 3.72432 19.525 6.59018 23.2656C7.9349 25.0212 9.95984 26.3578 12.292 27.0293C13.3251 27.3327 14.4232 27.491 15.532 27.4962C16.9133 27.4999 18.2713 27.2276 19.4675 26.7069C21.5967 25.7801 23.0025 24.1739 23.4257 22.1843ZM18.9476 21.6441C18.7449 22.5978 18.1242 23.3445 17.1998 23.7468C16.2754 24.1491 15.1071 24.1807 13.9097 23.8362C12.5474 23.4441 11.3425 22.6344 10.5169 21.5566C8.92972 19.4844 9.30696 16.985 11.3417 16.0993C11.8532 15.8805 12.4325 15.7678 13.0206 15.7727C13.5722 15.777 14.1182 15.8572 14.6315 16.0095C15.9938 16.4018 17.1987 17.2113 18.0243 18.2892C18.8499 19.367 19.1777 20.5588 18.9476 21.6441ZM23.9169 15.1034C25.527 16.0736 27.3657 16.5788 29.2252 16.5787C29.7821 16.5785 30.3375 16.5334 30.8816 16.444C35.6606 15.6609 38.5582 11.5901 37.3409 7.36936C36.7698 5.3884 35.3813 3.65045 33.4313 2.47539C31.3432 1.21714 28.8697 0.740857 26.4666 1.13478C21.6877 1.91772 18.7901 5.98859 20.0073 10.2093C20.5785 12.1904 21.967 13.9283 23.9169 15.1034ZM27.4297 4.47483C27.65 4.43902 27.8748 4.42111 28.1002 4.42142C28.9432 4.42142 29.8102 4.66998 30.5996 5.14572C31.7386 5.832 32.559 6.87973 32.9096 8.09601C33.5841 10.4347 32.2143 12.7283 29.9184 13.1045C28.8753 13.2754 27.7495 13.0374 26.7487 12.4342C25.6098 11.7478 24.7894 10.7001 24.4388 9.48394C23.7641 7.14462 25.1339 4.85103 27.4297 4.47483ZM68.9257 13.1392C66.796 12.2125 64.2473 12.098 61.7502 12.8169C59.418 13.4885 57.393 14.825 56.0483 16.5806C54.7036 18.3362 54.1803 20.3262 54.5745 22.1843C54.9971 24.1739 56.4026 25.7801 58.5327 26.7069C59.7289 27.2276 61.0869 27.5 62.4682 27.4962C63.577 27.491 64.6751 27.3327 65.7082 27.0293C68.0404 26.3578 70.0653 25.0212 71.41 23.2656C74.2756 19.525 73.161 14.9824 68.9257 13.1392ZM67.483 21.5566C66.6574 22.6344 65.4526 23.4441 64.0903 23.8362C62.8934 24.181 61.7248 24.1493 60.8004 23.7468C59.876 23.3443 59.2557 22.5978 59.0527 21.6441C58.8222 20.5588 59.1499 19.3675 59.9756 18.2901C60.8014 17.2128 62.0061 16.4028 63.3684 16.0104C63.8817 15.858 64.4277 15.7776 64.9794 15.7732C65.5675 15.7683 66.1467 15.8811 66.6582 16.0998C68.693 16.9848 69.0706 19.4839 67.483 21.5566ZM47.1183 16.444C47.6625 16.5334 48.2178 16.5785 48.7748 16.5787C50.634 16.5787 52.4735 16.0736 54.0831 15.1034C56.0329 13.9284 57.4214 12.1904 57.9926 10.2094C59.2098 5.98869 56.3122 1.91783 51.5334 1.13489C49.1303 0.741177 46.6567 1.21714 44.5686 2.4755C42.6186 3.65045 41.2301 5.38851 40.659 7.36936C39.4417 11.5901 42.3393 15.6609 47.1183 16.444ZM45.0904 8.09547C45.441 6.87919 46.2613 5.83104 47.4003 5.14519C48.1899 4.66944 49.0568 4.42089 49.8997 4.42089C50.1251 4.42058 50.3499 4.43848 50.5703 4.4743C52.866 4.85049 54.2358 7.14462 53.5614 9.48276C53.2105 10.699 52.3902 11.7472 51.2515 12.4332C50.2509 13.0362 49.1258 13.2742 48.0818 13.1034C45.7856 12.7277 44.4158 10.4338 45.0904 8.09547Z" stroke="black"/>
</g>
<defs>
<filter id="filter0_d_101_154" x="0.499878" y="0.5" width="77.0002" height="56" filterUnits="userSpaceOnUse" color-interpolation-filters="sRGB">
<feFlood flood-opacity="0" result="BackgroundImageFix"/>
<feColorMatrix in="SourceAlpha" type="matrix" values="0 0 0 0 0 0 0 0 0 0 0 0 0 0 0 0 0 0 127 0" result="hardAlpha"/>
<feOffset dy="4"/>
<feGaussianBlur stdDeviation="2"/>
<feComposite in2="hardAlpha" operator="out"/>
<feColorMatrix type="matrix" values="0 0 0 0 0 0 0 0 0 0 0 0 0 0 0 0 0 0 0.25 0"/>
<feBlend mode="normal" in2="BackgroundImageFix" result="effect1_dropShadow_101_154"/>
<feBlend mode="normal" in="SourceGraphic" in2="effect1_dropShadow_101_154" result="shape"/>
</filter>
</defs>
</svg>
